<svg xmlns="http://www.w3.org/2000/svg" version="1.1" xmlns:xlink="http://www.w3.org/1999/xlink" width="512" height="512" x="0" y="0" viewBox="0 0 512 512" style="enable-background:new 0 0 512 512" xml:space="preserve" class=""><g><path fill="#000000" d="M485.3 355.5v-199c0-20.4-10.9-39.2-28.5-49.4L284.5 7.6c-17.6-10.2-39.4-10.2-57 0L55.2 107.1c-17.6 10.2-28.5 29-28.5 49.4v199c0 20.4 10.9 39.2 28.5 49.4l172.3 99.5c17.6 10.2 39.4 10.2 57 0l172.3-99.5c17.7-10.2 28.5-29 28.5-49.4z" opacity="1" data-original="#ffb45a" class=""></path><path fill="#000000" d="m256 98.6-136.3 78.7v157.4L256 413.4l136.3-78.7V177.3zm91.3 210.1L256 361.5l-91.3-52.7V203.3l91.3-52.7 91.3 52.7z" opacity="1" data-original="#ff0075" class=""></path></g></svg>